<svg id="Capa_1" enable-background="new 0 0 512 512" height="512" viewBox="0 0 512 512" width="512" xmlns="http://www.w3.org/2000/svg"><g><g><g><circle cx="256" cy="255.996" fill="#fee7c9" r="120.81"/><path d="m376.807 255.999c0 66.716-54.084 120.811-120.811 120.811-8.303 0-16.425-.844-24.258-2.437 64.536-.983 116.536-53.604 116.536-118.374 0-64.75-51.969-117.37-116.483-118.375 7.823-1.603 15.912-2.436 24.205-2.436 66.727 0 120.811 54.085 120.811 120.811z" fill="#ffd496"/><g><g><ellipse cx="256" cy="255.996" fill="#fb9927" rx="92.236" ry="92.236" transform="matrix(.924 -.383 .383 .924 -78.479 117.454)"/></g><g><path d="m348.231 255.999c0 50.857-41.367 92.235-92.235 92.235-10.59 0-20.775-1.795-30.254-5.108 2.276.182 4.585.278 6.914.278 48.196 0 87.405-39.209 87.405-87.405s-39.209-87.405-87.405-87.405c-2.33 0-4.638.096-6.914.278 9.479-3.313 19.663-5.108 30.254-5.108 50.868 0 92.235 41.378 92.235 92.235z" fill="#f98824"/></g></g></g></g><g><g><ellipse cx="428.296" cy="83.707" fill="#23f1a8" rx="76.205" ry="76.204" transform="matrix(.07 -.998 .998 .07 314.86 505.105)"/></g><g><path d="m504.495 83.703c0 42.021-34.183 76.205-76.204 76.205-6.066 0-11.978-.716-17.636-2.07 33.533-7.971 58.557-38.179 58.557-74.135 0-35.945-25.023-66.164-58.557-74.135 5.659-1.354 11.57-2.07 17.636-2.07 42.022 0 76.204 34.194 76.204 76.205z" fill="#26d192"/></g></g><g><g><ellipse cx="83.704" cy="428.294" fill="#23f1a8" rx="76.205" ry="76.204" transform="matrix(.07 -.998 .998 .07 -349.392 481.859)"/></g><g><path d="m159.904 428.29c0 42.021-34.183 76.205-76.204 76.205-6.066 0-11.978-.716-17.636-2.07 33.533-7.971 58.557-38.179 58.557-74.135 0-35.945-25.023-66.164-58.557-74.135 5.659-1.354 11.57-2.07 17.636-2.07 42.021 0 76.204 34.194 76.204 76.205z" fill="#26d192"/></g></g><g><g><ellipse cx="83.705" cy="83.707" fill="#23f1a8" rx="76.205" ry="76.205" transform="matrix(.924 -.383 .383 .924 -25.662 38.404)"/></g><g><path d="m159.905 83.703c0 42.021-34.183 76.205-76.205 76.205-6.066 0-11.978-.716-17.636-2.07 33.534-7.971 58.557-38.179 58.557-74.135 0-35.945-25.024-66.164-58.557-74.135 5.659-1.354 11.571-2.07 17.636-2.07 42.022 0 76.205 34.194 76.205 76.205z" fill="#26d192"/></g></g><g><g><g><ellipse cx="428.295" cy="428.294" fill="#23f1a8" rx="76.205" ry="76.205" transform="matrix(.924 -.383 .383 .924 -131.299 196.504)"/></g><g><path d="m504.495 428.29c0 42.021-34.183 76.205-76.205 76.205-6.066 0-11.978-.716-17.636-2.07 33.534-7.971 58.557-38.179 58.557-74.135 0-35.945-25.024-66.164-58.557-74.135 5.659-1.354 11.571-2.07 17.636-2.07 42.022 0 76.205 34.194 76.205 76.205z" fill="#26d192"/></g></g><g><path d="m256 156.26c-46.735 0-87.752 33.16-97.528 78.848-.867 4.05 1.714 8.037 5.765 8.903 4.055.867 8.037-1.714 8.903-5.765 8.306-38.814 43.153-66.986 82.86-66.986 46.724 0 84.736 38.012 84.736 84.736 0 46.723-38.013 84.735-84.736 84.735-40.781 0-75.81-29.078-83.292-69.142-.761-4.071-4.675-6.753-8.75-5.996-4.072.76-6.756 4.678-5.996 8.75 8.808 47.159 50.039 81.388 98.038 81.388 54.995 0 99.736-44.741 99.736-99.735s-44.741-99.736-99.736-99.736z"/><path d="m227.095 297.25h-3.878c-2.761 0-5 2.239-5 5v5c0 2.761 2.239 5 5 5h7.241c2.761 0 5 2.239 5 5v3.89c0 2.761 2.239 5 5 5h5c2.761 0 5-2.239 5-5v-3.89c0-2.761 2.239-5 5-5h.583c2.761 0 5 2.239 5 5v3.89c0 2.761 2.239 5 5 5h5c2.761 0 5-2.239 5-5v-4.999c0-2.306 1.582-4.3 3.822-4.85 14.404-3.539 25.123-16.555 25.123-32.036 0-9.728-4.232-18.485-10.951-24.529-1.835-1.65-2.181-4.382-.832-6.448 2.918-4.474 4.615-9.812 4.615-15.54 0-12.214-7.719-22.654-18.533-26.711-1.95-.732-3.244-2.59-3.244-4.673v-6.031c0-2.761-2.239-5-5-5h-5c-2.761 0-5 2.239-5 5v3.891c0 2.761-2.239 5-5 5h-.583c-2.761 0-5-2.239-5-5v-3.891c0-2.761-2.239-5-5-5h-5c-2.761 0-5 2.239-5 5v3.891c0 2.761-2.239 5-5 5h-7.241c-2.761 0-5 2.239-5 5v5c0 2.761 2.239 5 5 5h3.878c2.761 0 5 2.239 5 5v68.037c0 2.76-2.239 4.999-5 4.999zm44.454 0h-19.455c-2.761 0-5-2.239-5-5v-25.99c0-2.761 2.239-5 5-5h19.896c10.153 0 18.369 8.452 17.982 18.689-.367 9.738-8.678 17.301-18.423 17.301zm-2.255-78.037c7.683 0 13.891 6.44 13.508 14.205-.358 7.264-6.626 12.842-13.899 12.842h-16.808c-2.761 0-5-2.239-5-5v-17.047c0-2.761 2.239-5 5-5z"/><path d="m428.296 128.838c4.143 0 7.5-3.358 7.5-7.5v-3.574c10.742-.813 19.239-9.793 19.239-20.74 0-11.48-9.34-20.82-20.819-20.82h-11.84c-3.209 0-5.819-2.611-5.819-5.82s2.61-5.82 5.819-5.82h25.159c4.143 0 7.5-3.358 7.5-7.5s-3.357-7.5-7.5-7.5h-11.739v-3.494c0-4.142-3.357-7.5-7.5-7.5s-7.5 3.358-7.5 7.5v3.574c-10.742.813-19.239 9.793-19.239 20.74 0 11.48 9.34 20.82 20.819 20.82h11.84c3.209 0 5.819 2.611 5.819 5.82s-2.61 5.82-5.819 5.82h-25.159c-4.143 0-7.5 3.358-7.5 7.5s3.357 7.5 7.5 7.5h11.739v3.494c0 4.142 3.357 7.5 7.5 7.5z"/><path d="m483.674 88.069v-8.728c0-4.142-3.357-7.5-7.5-7.5s-7.5 3.358-7.5 7.5v8.728c0 4.142 3.357 7.5 7.5 7.5s7.5-3.358 7.5-7.5z"/><path d="m372.918 79.341v8.728c0 4.142 3.357 7.5 7.5 7.5s7.5-3.358 7.5-7.5v-8.728c0-4.142-3.357-7.5-7.5-7.5s-7.5 3.358-7.5 7.5z"/><path d="m83.704 383.158c-4.142 0-7.5 3.358-7.5 7.5v3.574c-10.742.813-19.239 9.793-19.239 20.74 0 11.48 9.339 20.82 20.819 20.82h11.84c3.209 0 5.82 2.611 5.82 5.82s-2.611 5.82-5.82 5.82h-25.159c-4.142 0-7.5 3.358-7.5 7.5s3.358 7.5 7.5 7.5h11.739v3.494c0 4.142 3.358 7.5 7.5 7.5s7.5-3.358 7.5-7.5v-3.574c10.742-.813 19.24-9.793 19.24-20.74 0-11.48-9.34-20.82-20.82-20.82h-11.84c-3.209 0-5.819-2.611-5.819-5.82s2.61-5.82 5.819-5.82h25.16c4.142 0 7.5-3.358 7.5-7.5s-3.358-7.5-7.5-7.5h-11.74v-3.494c0-4.142-3.358-7.5-7.5-7.5z"/><path d="m139.082 432.656v-8.728c0-4.142-3.358-7.5-7.5-7.5s-7.5 3.358-7.5 7.5v8.728c0 4.142 3.358 7.5 7.5 7.5s7.5-3.358 7.5-7.5z"/><path d="m28.327 423.928v8.728c0 4.142 3.358 7.5 7.5 7.5s7.5-3.358 7.5-7.5v-8.728c0-4.142-3.358-7.5-7.5-7.5s-7.5 3.358-7.5 7.5z"/><path d="m77.785 64.565h25.159c4.142 0 7.5-3.358 7.5-7.5s-3.358-7.5-7.5-7.5h-11.739v-3.494c0-4.142-3.358-7.5-7.5-7.5s-7.5 3.358-7.5 7.5v3.574c-10.742.813-19.24 9.793-19.24 20.74 0 11.48 9.34 20.82 20.82 20.82h11.84c3.209 0 5.819 2.611 5.819 5.82s-2.61 5.82-5.819 5.82h-25.16c-4.142 0-7.5 3.358-7.5 7.5s3.358 7.5 7.5 7.5h11.74v3.494c0 4.142 3.358 7.5 7.5 7.5s7.5-3.358 7.5-7.5v-3.574c10.742-.813 19.239-9.793 19.239-20.74 0-11.48-9.339-20.82-20.819-20.82h-11.84c-3.209 0-5.82-2.611-5.82-5.82s2.611-5.82 5.82-5.82z"/><path d="m139.083 88.069v-8.728c0-4.142-3.358-7.5-7.5-7.5s-7.5 3.358-7.5 7.5v8.728c0 4.142 3.358 7.5 7.5 7.5s7.5-3.358 7.5-7.5z"/><path d="m35.827 71.841c-4.142 0-7.5 3.358-7.5 7.5v8.728c0 4.142 3.358 7.5 7.5 7.5s7.5-3.358 7.5-7.5v-8.728c0-4.142-3.358-7.5-7.5-7.5z"/><path d="m428.295 344.589c-20.383 0-39.08 7.331-53.614 19.485l-22.853-22.854c20.192-22.679 32.481-52.541 32.481-85.223 0-32.68-12.288-62.54-32.477-85.219l22.802-22.803c9.499 7.923 20.857 13.83 33.512 16.97 4.022.998 8.088-1.453 9.085-5.473.997-4.021-1.453-8.088-5.474-9.085-30.715-7.621-52.166-35.041-52.166-66.679 0-37.884 30.82-68.705 68.704-68.705s68.705 30.82 68.705 68.704c0 31.812-21.599 59.265-52.524 66.761-4.025.976-6.498 5.03-5.522 9.056.832 3.432 3.901 5.735 7.283 5.735.585 0 1.179-.069 1.772-.213 37.677-9.133 63.991-42.581 63.991-81.339 0-46.155-37.55-83.705-83.704-83.705s-83.704 37.55-83.704 83.705c0 20.217 7.198 39.013 19.434 53.663l-22.799 22.8c-22.68-20.193-52.543-32.484-85.227-32.484s-62.546 12.29-85.226 32.483l-22.849-22.849c12.153-14.533 19.485-33.231 19.485-53.613 0-46.155-37.55-83.705-83.705-83.705-46.155 0-83.705 37.55-83.705 83.705s37.55 83.705 83.705 83.705c20.383 0 39.081-7.331 53.614-19.485l22.849 22.85c-20.19 22.679-32.478 52.539-32.478 85.22 0 32.682 12.289 62.544 32.481 85.223l-22.803 22.803c-9.527-7.944-20.924-13.859-33.625-16.993-4.023-.995-8.086 1.464-9.078 5.485s1.464 8.086 5.485 9.078c30.769 7.59 52.258 35.018 52.258 66.7 0 37.884-30.821 68.705-68.705 68.705s-68.703-30.821-68.703-68.704c0-31.768 21.562-59.213 52.435-66.741 4.024-.981 6.491-5.039 5.51-9.063-.981-4.023-5.034-6.489-9.063-5.51-37.613 9.171-63.882 42.609-63.882 81.314 0 46.155 37.549 83.705 83.704 83.705s83.705-37.55 83.705-83.705c0-20.225-7.197-39.019-19.432-53.666l22.801-22.802c22.679 20.191 52.54 32.48 85.222 32.48s62.543-12.289 85.222-32.479l22.853 22.854c-12.153 14.533-19.485 33.231-19.485 53.614 0 46.155 37.55 83.705 83.705 83.705s83.705-37.552 83.705-83.706c0-46.156-37.55-83.705-83.705-83.705zm-413.295-260.882c0-37.884 30.821-68.705 68.705-68.705s68.705 30.821 68.705 68.705-30.821 68.705-68.705 68.705c-37.884-.001-68.705-30.821-68.705-68.705zm127.69 172.289c0-62.479 50.831-113.31 113.31-113.31s113.31 50.831 113.31 113.31-50.83 113.31-113.31 113.31c-62.479 0-113.31-50.831-113.31-113.31zm285.605 241.002c-37.884 0-68.705-30.821-68.705-68.705s30.821-68.705 68.705-68.705 68.705 30.821 68.705 68.706c0 37.883-30.821 68.704-68.705 68.704z"/><path d="m422.375 409.152h25.159c4.143 0 7.5-3.358 7.5-7.5s-3.357-7.5-7.5-7.5h-11.739v-3.494c0-4.142-3.357-7.5-7.5-7.5s-7.5 3.358-7.5 7.5v3.574c-10.742.813-19.239 9.793-19.239 20.74 0 11.48 9.34 20.82 20.819 20.82h11.84c3.209 0 5.819 2.611 5.819 5.82s-2.61 5.82-5.819 5.82h-25.159c-4.143 0-7.5 3.358-7.5 7.5s3.357 7.5 7.5 7.5h11.739v3.494c0 4.142 3.357 7.5 7.5 7.5s7.5-3.358 7.5-7.5v-3.574c10.742-.813 19.239-9.793 19.239-20.74 0-11.48-9.34-20.82-20.819-20.82h-11.84c-3.209 0-5.819-2.611-5.819-5.82s2.61-5.82 5.819-5.82z"/><path d="m468.673 423.928v8.728c0 4.142 3.357 7.5 7.5 7.5s7.5-3.358 7.5-7.5v-8.728c0-4.142-3.357-7.5-7.5-7.5s-7.5 3.358-7.5 7.5z"/><path d="m380.417 416.428c-4.143 0-7.5 3.358-7.5 7.5v8.728c0 4.142 3.357 7.5 7.5 7.5s7.5-3.358 7.5-7.5v-8.728c0-4.142-3.357-7.5-7.5-7.5z"/></g></g></g></svg>